<?xml version="1.0" encoding="UTF-8"?>
<!DOCTYPE svg PUBLIC "-//W3C//DTD SVG 1.1//EN" "http://www.w3.org/Graphics/SVG/1.1/DTD/svg11.dtd">
<svg xmlns="http://www.w3.org/2000/svg" version="1.1" width="500px" height="500px" style="shape-rendering:geometricPrecision; text-rendering:geometricPrecision; image-rendering:optimizeQuality; fill-rule:evenodd; clip-rule:evenodd" xmlns:xlink="http://www.w3.org/1999/xlink">
<g><path style="opacity:0.005" fill="#fefefe" d="M -0.5,-0.5 C 166.167,-0.5 332.833,-0.5 499.5,-0.5C 499.5,166.167 499.5,332.833 499.5,499.5C 332.833,499.5 166.167,499.5 -0.5,499.5C -0.5,332.833 -0.5,166.167 -0.5,-0.5 Z"/></g>
<g><path style="opacity:0.993" fill="#020202" d="M 229.5,29.5 C 305.087,25.396 367.92,51.396 418,107.5C 472.408,177.247 483.741,253.58 452,336.5C 415.082,414.572 353.582,458.738 267.5,469C 192.028,473.193 129.528,447.026 80,390.5C 33.3573,330.965 19.024,264.299 37,190.5C 67.9358,97.0615 132.103,43.3948 229.5,29.5 Z"/></g>
<g><path style="opacity:1" fill="#fefefe" d="M 233.5,58.5 C 315.329,55.8175 376.829,89.4841 418,159.5C 447.899,219.485 447.899,279.485 418,339.5C 374.464,412.689 309.964,445.855 224.5,439C 144.528,425.029 91.6948,379.529 66,302.5C 46.8727,224.482 66.7061,158.315 125.5,104C 156.968,78.0998 192.968,62.9331 233.5,58.5 Z"/></g>
<g><path style="opacity:1" fill="#2866d5" d="M 188.5,303.5 C 188.827,298.456 188.494,293.456 187.5,288.5C 186.893,288.624 186.56,288.957 186.5,289.5C 160.924,295.294 141.424,286.96 128,264.5C 108.175,220.132 111.841,177.799 139,137.5C 151.056,120.454 167.222,109.287 187.5,104C 209.949,101.773 227.116,110.273 239,129.5C 251.326,152.374 255.326,176.707 251,202.5C 246.087,235.024 230.92,261.357 205.5,281.5C 206.889,289.28 208.722,296.947 211,304.5C 216.967,313.317 223.634,313.65 231,305.5C 235.231,296.975 237.731,287.975 238.5,278.5C 240.5,278.5 242.5,278.5 244.5,278.5C 244.515,289.771 242.015,300.438 237,310.5C 226.145,325.898 212.312,329.398 195.5,321C 190.814,316.125 188.481,310.292 188.5,303.5 Z"/></g>
<g><path style="opacity:1" fill="#fdfefe" d="M 186.5,111.5 C 202.817,110.244 213.984,117.244 220,132.5C 228.867,161.328 230.867,190.662 226,220.5C 223.073,239.345 215.573,256.012 203.5,270.5C 200.85,260.023 195.517,251.19 187.5,244C 176.157,239.558 166.99,242.391 160,252.5C 156.055,262.329 157.222,271.496 163.5,280C 158.584,278.442 154.751,275.275 152,270.5C 144.871,255.315 140.871,239.315 140,222.5C 137.726,198.24 140.392,174.573 148,151.5C 152.431,138.447 159.931,127.613 170.5,119C 175.603,115.809 180.936,113.309 186.5,111.5 Z"/></g>
<g><path style="opacity:1" fill="#2967d5" d="M 384.5,349.5 C 384.5,352.167 384.5,354.833 384.5,357.5C 369.167,357.5 353.833,357.5 338.5,357.5C 338.5,355.5 338.5,353.5 338.5,351.5C 346.065,351.906 350.065,348.406 350.5,341C 348.64,331.615 345.64,322.615 341.5,314C 326.5,313.333 311.5,313.333 296.5,314C 293.774,314.182 291.107,314.682 288.5,315.5C 284.429,326.712 280.763,338.045 277.5,349.5C 282.5,349.5 287.5,349.5 292.5,349.5C 292.5,352.5 292.5,355.5 292.5,358.5C 279.833,358.5 267.167,358.5 254.5,358.5C 254.5,356.167 254.5,353.833 254.5,351.5C 260.694,351.155 265.194,348.155 268,342.5C 283.863,299.91 299.53,257.244 315,214.5C 317.77,211.72 320.104,212.054 322,215.5C 336.667,252.833 351.333,290.167 366,327.5C 368.969,334.568 370.802,341.901 371.5,349.5C 375.833,349.5 380.167,349.5 384.5,349.5 Z"/></g>
<g><path style="opacity:1" fill="#fcfdfe" d="M 314.5,242.5 C 322.771,263.134 330.771,283.967 338.5,305C 322.833,305.667 307.167,305.667 291.5,305C 299.072,284.116 306.739,263.283 314.5,242.5 Z"/></g>
<g><path style="opacity:1" fill="#fcfcfe" d="M 173.5,248.5 C 179.561,248.277 183.728,250.944 186,256.5C 188.973,264.756 189.14,272.923 186.5,281C 173.732,285.529 166.565,281.029 165,267.5C 162.762,258.662 165.595,252.329 173.5,248.5 Z"/></g>
<g><path style="opacity:1" fill="#8aace8" d="M 186.5,289.5 C 186.56,288.957 186.893,288.624 187.5,288.5C 188.494,293.456 188.827,298.456 188.5,303.5C 187.833,298.833 187.167,294.167 186.5,289.5 Z"/></g>
<g><path style="opacity:1" fill="#6391e1" d="M 384.5,349.5 C 385.477,352.287 385.81,355.287 385.5,358.5C 369.658,358.83 353.991,358.496 338.5,357.5C 353.833,357.5 369.167,357.5 384.5,357.5C 384.5,354.833 384.5,352.167 384.5,349.5 Z"/></g>
</svg>
